# xmcd
#
# Track frame offsets: 
#        150
#        24650
#        45772
#        64137
#        92205
#        114492
#        132830
#        145680
#        159557
#        179852
#        198160
#        217107
#
# Disc length: 3173 seconds
#
# Revision: 0
# Processed by: cddbd v1.5PL3 Copyright (c) Steve Scherf et al.
# Submitted via: ExactAudioCopy v0.95a5
#
DISCID=ab0c630c
DTITLE=Brian Templeton - Home
DYEAR=1999
DGENRE=Blues
TTITLE0=Melosa
TTITLE1=The Blaze
TTITLE2=Four Crows
TTITLE3=The Sad Sell
TTITLE4=I Know You Know
TTITLE5=Katelyn Marie
TTITLE6=Long Gone Lonesome Blues
TTITLE7=Dead Love
TTITLE8=Memphis Senorita
TTITLE9=Trouble Man
TTITLE10=She's My Baby
TTITLE11=Home
EXTD=
EXTT0=
EXTT1=
EXTT2=
EXTT3=
EXTT4=
EXTT5=
EXTT6=
EXTT7=
EXTT8=
EXTT9=
EXTT10=
EXTT11=
PLAYORDER=
